<?xml version="1.0" standalone="no"?>
<!DOCTYPE svg PUBLIC "-//W3C//DTD SVG 20010904//EN"
 "http://www.w3.org/TR/2001/REC-SVG-20010904/DTD/svg10.dtd">
<svg version="1.0" xmlns="http://www.w3.org/2000/svg"
 width="295.000000pt" height="85.000000pt" viewBox="0 0 295.000000 85.000000"
 preserveAspectRatio="xMidYMid meet">
<metadata>
Created by potrace 1.16, written by Peter Selinger 2001-2019
</metadata>
<g transform="translate(0.000000,85.000000) scale(0.100000,-0.100000)"
fill="#000000" stroke="none">
<path d="M405 823 c4 -16 23 -61 44 -102 35 -70 40 -76 87 -91 34 -12 89 -18
182 -19 l132 -2 0 105 c0 143 12 136 -248 136 l-204 0 7 -27z"/>
<path d="M907 843 c-16 -4 -17 -26 -15 -331 l3 -326 36 -9 c20 -5 51 -4 70 0
l34 9 3 326 2 326 -22 6 c-26 6 -84 6 -111 -1z"/>
<path d="M16 824 c-13 -12 -16 -39 -16 -128 0 -62 3 -115 6 -118 3 -4 20 -2
37 4 18 5 59 15 92 23 150 33 139 26 189 127 26 51 46 96 46 100 0 4 -76 8
-169 8 -141 0 -172 -3 -185 -16z"/>
<path d="M1677 769 c-46 -22 -90 -51 -104 -69 -7 -8 -13 -10 -13 -4 0 14 -39
55 -66 70 -30 17 -134 17 -174 0 -19 -8 -48 -26 -63 -40 -34 -32 -37 -32 -37
-3 0 12 -4 27 -8 34 -6 9 -65 17 -110 14 -10 -1 -12 -63 -10 -293 l3 -292 33
-10 c22 -6 45 -5 72 3 l40 12 0 188 c0 183 1 189 23 213 40 43 74 61 104 53
30 -7 63 -40 64 -64 0 -9 0 -97 -1 -197 -1 -206 -1 -207 78 -208 86 -1 82 -11
82 203 l0 189 35 35 c58 58 106 61 141 10 17 -25 19 -53 22 -226 l4 -198 26
-11 c17 -6 44 -7 72 -1 l45 8 0 237 0 236 -30 44 c-17 23 -47 51 -68 62 -48
23 -119 26 -160 5z"/>
<path d="M2755 780 c-100 -11 -150 -41 -200 -120 -31 -50 -37 -76 -40 -184 -3
-94 18 -179 53 -221 31 -38 87 -74 122 -80 19 -3 43 -8 53 -11 23 -7 125 16
157 35 14 8 31 21 38 30 14 17 16 117 3 126 -5 3 -31 -8 -57 -25 -81 -51 -160
-37 -195 33 -16 30 -20 56 -18 115 2 83 12 117 44 146 47 43 97 43 171 0 51
-30 63 -20 60 49 -2 56 -15 71 -82 95 -37 14 -64 17 -109 12z"/>
<path d="M2096 759 c-33 -11 -66 -28 -73 -37 -22 -29 -15 -112 10 -112 6 0 29
9 52 20 54 26 133 40 162 29 13 -5 23 -5 23 -1 0 4 11 -6 25 -22 17 -20 25
-41 25 -68 l0 -39 -57 2 c-79 3 -139 -8 -195 -39 -83 -44 -111 -144 -67 -236
17 -36 30 -48 72 -67 76 -33 154 -30 215 10 42 27 48 28 53 13 4 -9 5 -20 3
-24 -7 -12 72 -19 99 -9 l27 11 0 204 c0 113 -5 228 -11 255 -12 59 -56 104
-116 120 -63 18 -181 13 -247 -10z m224 -379 c0 -46 -3 -51 -37 -75 -72 -49
-153 -26 -153 43 0 59 33 80 128 81 l62 1 0 -50z"/>
<path d="M0 142 c0 -71 4 -112 12 -120 7 -7 40 -12 79 -12 71 0 79 5 79 56 0
58 -57 144 -110 167 -61 25 -60 27 -60 -91z"/>
</g>
</svg>
